<svg width="61" height="68" viewBox="0 0 61 68" fill="none" xmlns="http://www.w3.org/2000/svg">
<path d="M6.727 66.9961C7.49716 67.0481 8.24606 67.2324 9.02095 67.2654C9.96594 67.2985 10.9109 67.2655 11.8417 67.2489C13.6207 67.2347 15.402 67.2017 17.1809 67.1851C17.677 67.1851 18.1613 67.2938 18.6551 67.334C19.1658 67.3561 19.6775 67.3308 20.1836 67.2584C20.6316 67.2006 21.0832 67.1745 21.5349 67.1804C21.868 67.1922 22.1988 67.2206 22.5295 67.2253C23.1579 67.2371 23.9305 67.2135 24.3321 66.6536C24.5461 66.3082 24.6583 65.9094 24.6558 65.503C24.6558 65.3164 24.6723 65.1274 24.6888 64.9408C24.7077 64.7187 24.7644 64.5085 24.7691 64.284C24.7843 64.0517 24.8135 63.8206 24.8566 63.5918C24.892 63.3249 24.8849 63.0508 24.9345 62.7839C25.0196 62.3114 25.2487 61.82 25.2346 61.3357C25.2346 61.1372 25.2346 60.9435 25.2204 60.7474C25.2253 60.5175 25.2835 60.2919 25.3905 60.0883C25.5225 59.6464 25.5824 59.1861 25.5677 58.7251C25.5472 58.2355 25.5645 57.745 25.6196 57.258C25.6929 56.7856 25.7543 56.2753 25.8559 55.8004C25.9575 55.3255 26.2173 54.983 26.1795 54.5058C26.1417 54.0286 26.3095 53.5773 26.326 53.1025C26.326 52.8544 26.326 52.604 26.3544 52.3583C26.397 52.0922 26.4253 51.8241 26.4394 51.5551C26.4253 51.3212 26.4533 51.0868 26.5221 50.8629C26.6001 50.6597 26.7347 50.4825 26.8269 50.284C26.9859 49.8672 27.0324 49.4158 26.9615 48.9752C26.9261 48.4744 26.9403 47.9712 26.9308 47.468C26.924 47.2532 26.947 47.0385 26.9993 46.8301C27.0653 46.6055 27.0964 46.372 27.0915 46.1379C27.0653 45.9373 27.1042 45.7336 27.2025 45.5568C27.3154 45.3631 27.3877 45.1485 27.4151 44.926C27.4529 44.4722 27.4387 44.0157 27.3726 43.5652C27.3185 43.156 27.1853 42.7612 26.9804 42.4029C26.5605 41.6968 25.9483 41.1248 25.2154 40.7537C24.4824 40.3826 23.659 40.2278 22.8414 40.3074C22.4227 40.3827 22.0154 40.5114 21.6294 40.6901C21.1814 40.8177 20.7524 41.0044 20.3537 41.2453C19.645 41.7603 19.2363 42.5399 18.8512 43.3053C18.6362 43.7282 18.6149 44.1912 18.4779 44.6378L18.9102 44.5244C18.5653 44.2243 18.6385 43.7093 18.5464 43.3006C18.3981 42.8174 18.128 42.3806 17.7621 42.032C17.4252 41.634 17.0501 41.27 16.6423 40.9452C16.213 40.6446 15.748 40.3985 15.2579 40.2129C13.6325 39.5655 11.2251 39.4238 10.3817 41.309C10.1747 41.8575 10.0374 42.4297 9.97303 43.0124C9.86199 43.6455 9.61866 44.2787 9.62102 44.926C9.62102 44.9943 9.64815 45.0598 9.69644 45.1081C9.74473 45.1564 9.81023 45.1835 9.87853 45.1835C9.94682 45.1835 10.0123 45.1564 10.0606 45.1081C10.1089 45.0598 10.136 44.9943 10.136 44.926C10.1625 44.43 10.0565 43.9358 9.82892 43.4943C9.70696 43.2842 9.56705 43.085 9.41076 42.899C9.25627 42.6534 9.08163 42.4211 8.88865 42.2044C8.70438 42.0225 8.49412 41.8666 8.30513 41.6894C8.11613 41.5122 7.95312 41.3327 7.76176 41.172C7.59102 41.0269 7.39583 40.9133 7.18532 40.8365C6.8849 40.7592 6.57648 40.7172 6.26632 40.7113C5.18903 40.6098 3.96528 40.4515 3.02029 41.1271C2.58796 41.439 2.52417 41.8973 2.59505 42.3958C2.62812 42.6202 2.68482 42.8446 2.70372 43.0714C2.71892 43.3583 2.75684 43.6435 2.81712 43.9243C2.95887 44.4842 3.20456 45.0087 3.38884 45.5544C3.4844 45.8185 3.55325 46.0916 3.59437 46.3694C3.63453 46.7026 3.62036 47.0404 3.65579 47.3759C3.72194 48.0279 3.76919 48.6917 3.89204 49.3391C3.94086 49.632 3.98811 49.925 4.03379 50.2179C4.05863 50.3574 4.09417 50.4949 4.1401 50.629C4.18755 50.7817 4.19967 50.9433 4.17554 51.1015C4.15547 51.3972 4.15547 51.694 4.17554 51.9897C4.1862 52.3061 4.2146 52.6216 4.26059 52.9347C4.35178 53.5404 4.48599 54.1389 4.6622 54.7255C5.00476 55.9067 5.4489 57.062 5.70405 58.2692C5.83534 58.9257 5.90102 59.5936 5.90014 60.2631L5.91431 61.4278C5.90602 61.8008 5.92021 62.174 5.95683 62.5452C6.02448 62.8872 6.07338 63.2327 6.10331 63.58C6.1107 63.9435 6.13831 64.3063 6.18599 64.6667C6.32749 65.3893 6.42453 66.1199 6.47658 66.8544C6.47658 66.9227 6.50371 66.9882 6.552 67.0365C6.60029 67.0848 6.66579 67.1119 6.73409 67.1119C6.80238 67.1119 6.86788 67.0848 6.91617 67.0365C6.96447 66.9882 6.99159 66.9227 6.99159 66.8544V66.7528C6.99159 66.6845 6.96447 66.619 6.91617 66.5707C6.86788 66.5224 6.80238 66.4953 6.73409 66.4953C6.66579 66.4953 6.60029 66.5224 6.552 66.5707C6.50371 66.619 6.47658 66.6845 6.47658 66.7528V66.8544H6.99159C6.95905 66.2296 6.88008 65.6082 6.75535 64.9951C6.70574 64.7069 6.66085 64.421 6.63723 64.1328C6.60888 63.7974 6.62305 63.4666 6.57344 63.1335C6.53328 62.8642 6.46949 62.5972 6.4435 62.3255C6.41515 62.0019 6.42933 61.6711 6.42697 61.3451C6.42697 60.7049 6.42696 60.0552 6.38917 59.415C6.21907 57.0998 5.03075 55.0161 4.73544 52.7221C4.70237 52.4552 4.68583 52.1882 4.67874 51.9212C4.67874 51.7582 4.65984 51.5952 4.65748 51.4322C4.65512 51.2692 4.69528 51.0707 4.69292 50.8912C4.65561 50.6435 4.59793 50.3994 4.52046 50.1612C4.46612 49.8706 4.43068 49.5729 4.37871 49.28C4.27004 48.6563 4.22515 48.0114 4.16136 47.39C4.09994 46.8065 4.1212 46.2371 3.9511 45.6702C3.781 45.1032 3.54948 44.6118 3.38175 44.0731C3.26751 43.5763 3.18388 43.0729 3.13133 42.5659C3.08303 42.3625 3.06394 42.1533 3.07463 41.9445C3.08796 41.8474 3.12574 41.7553 3.18442 41.6768C3.2431 41.5983 3.32075 41.536 3.4101 41.4957C3.8456 41.2603 4.33252 41.1361 4.82758 41.1342C5.17427 41.1361 5.52057 41.1582 5.8647 41.2004C6.20404 41.2156 6.54234 41.2488 6.8782 41.2996C7.39794 41.4083 7.71687 41.876 8.09487 42.2068C8.3134 42.3743 8.51516 42.5626 8.6973 42.769C8.88393 43.0053 9.04458 43.2628 9.22412 43.5038C9.5269 43.9213 9.67097 44.4331 9.63047 44.9472H10.1455C10.1455 44.4015 10.351 43.8723 10.4479 43.3384C10.5154 42.8268 10.6164 42.3201 10.7503 41.8217C10.8462 41.4937 11.0221 41.1947 11.262 40.9514C11.502 40.7082 11.7986 40.5283 12.1252 40.4278C13.0702 40.1514 14.1215 40.3499 15.0122 40.6854C15.471 40.8543 15.9073 41.0788 16.3115 41.3539C16.6874 41.6475 17.0318 41.9792 17.3392 42.3438C17.6888 42.7171 18.0219 43.1211 18.0928 43.6432C18.1542 44.1156 18.1755 44.5881 18.5653 44.9094C18.5975 44.9405 18.6371 44.9628 18.6803 44.9741C18.7236 44.9854 18.769 44.9853 18.8123 44.9739C18.8555 44.9625 18.8951 44.9402 18.9271 44.909C18.9592 44.8778 18.9827 44.8389 18.9953 44.796C19.1276 44.359 19.1465 43.9078 19.3615 43.4967C19.5443 43.1086 19.7551 42.7343 19.9922 42.3769C20.2171 42.0538 20.5067 41.781 20.8427 41.576C21.2728 41.3788 21.7137 41.206 22.1633 41.0586C22.4985 40.9074 22.8612 40.827 23.2288 40.8224C23.6295 40.8255 24.0275 40.8876 24.4101 41.0066C25.1614 41.2204 25.824 41.6702 26.3 42.2895C26.5437 42.6035 26.7235 42.9623 26.8292 43.3455C26.9153 43.7515 26.9534 44.1662 26.9426 44.5811C26.9582 44.7928 26.925 45.0054 26.8458 45.2024C26.7357 45.3801 26.6558 45.5749 26.6095 45.7788C26.5812 45.9796 26.6284 46.1781 26.6095 46.3765C26.5906 46.575 26.5056 46.7947 26.4701 47.0073C26.424 47.4974 26.4193 47.9906 26.4559 48.4815C26.4559 48.9138 26.5599 49.3721 26.489 49.8021C26.4252 50.1895 26.1158 50.4896 26.0165 50.8699C25.9687 51.103 25.9481 51.3409 25.9551 51.5787C25.9442 51.8201 25.9189 52.0608 25.8795 52.2992C25.8134 52.8001 25.8535 53.2915 25.7472 53.7876C25.6996 53.984 25.6774 54.1856 25.6811 54.3877C25.6976 54.505 25.7047 54.6235 25.7023 54.742C25.6831 54.8572 25.6506 54.9698 25.6055 55.0775C25.5254 55.2645 25.4568 55.4562 25.3999 55.6516C25.3409 55.8878 25.3267 56.1241 25.2865 56.3603C25.1927 56.8225 25.1233 57.2894 25.0786 57.7589C25.0503 58.2078 25.0952 58.659 25.0786 59.1102C25.07 59.3292 25.0399 59.5468 24.9889 59.7599C24.9322 59.9961 24.8046 60.1993 24.7526 60.4285C24.729 60.6065 24.729 60.7868 24.7526 60.9648C24.7614 61.1956 24.7464 61.4268 24.7077 61.6546C24.5806 62.1164 24.4835 62.5859 24.4171 63.0603C24.4015 63.3028 24.3715 63.5442 24.3274 63.7832C24.2825 64.0194 24.3014 64.232 24.2754 64.4588C24.2541 64.6478 24.2116 64.8321 24.1974 65.0235C24.1833 65.2148 24.1785 65.3991 24.1644 65.5881C24.1407 65.9047 24.0864 66.311 23.8123 66.5165C23.5599 66.6642 23.2707 66.7371 22.9784 66.7268C22.3075 66.7599 21.6412 66.6559 20.9703 66.6961C20.4978 66.7244 20.0135 66.793 19.5316 66.8308C19.0431 66.86 18.5528 66.837 18.0692 66.7622C17.5803 66.7016 17.0868 66.6858 16.595 66.715C16.0989 66.7315 15.6004 66.7268 15.1043 66.7292L12.5269 66.7481C11.8181 66.7481 11.1094 66.7481 10.3817 66.767C9.4764 66.8069 8.56936 66.7554 7.67435 66.6134C7.37042 66.5587 7.06357 66.5216 6.75535 66.5024C6.42224 66.4811 6.4246 66.9961 6.75535 67.0174L6.727 66.9961Z" fill="#50735F"/>
<path d="M23.9112 67.0221C25.0499 67.0008 25.9642 66.2165 27.0816 66.122C27.1375 66.1205 27.1916 66.1014 27.2361 66.0675C27.2806 66.0336 27.3133 65.9865 27.3297 65.933C27.3769 65.6967 27.3013 65.4369 27.469 65.2455C27.6449 65.0581 27.7893 64.8435 27.8967 64.61C27.9959 64.395 28.0738 64.1682 28.1707 63.9509C28.3009 63.7231 28.4146 63.4862 28.5109 63.2421C28.577 63.0059 28.5652 62.7697 28.6196 62.5334C28.6739 62.2972 28.8322 62.0845 28.8936 61.8412C28.9298 61.5987 28.9354 61.3527 28.9102 61.1088C28.9359 60.8289 29.0078 60.5551 29.1228 60.2985C29.2105 60.0776 29.2662 59.8453 29.2881 59.6087C29.2881 59.4858 29.274 59.3724 29.2716 59.2378C29.2749 59.1058 29.3013 58.9755 29.3496 58.8527C29.4409 58.6345 29.5198 58.4112 29.5858 58.1841C29.6358 57.9083 29.654 57.6277 29.6402 57.3478C29.621 57.1109 29.6337 56.8725 29.678 56.6391C29.7569 56.3897 29.7998 56.1304 29.8055 55.8689C29.7913 55.3326 30.0418 54.8814 30.219 54.3923C30.3843 53.869 30.5122 53.3345 30.6017 52.793C30.7033 52.3012 30.7625 51.8017 30.7789 51.2999C30.785 50.7906 30.8316 50.2827 30.9182 49.7808C31.0293 49.254 31.2419 48.7484 31.3766 48.2239C31.5112 47.6995 31.6128 47.201 31.7144 46.6883C31.8265 46.2012 31.9637 45.7202 32.1255 45.2472C32.2963 44.7824 32.3561 44.2841 32.3003 43.792C32.2186 43.4632 32.0269 43.1722 31.7569 42.9675C31.4453 42.6823 31.0863 42.4536 30.6962 42.2918C30.1754 42.1063 29.6229 42.026 29.0708 42.0556C28.5983 42.0697 28.2439 42.2705 27.8187 42.4383C27.2966 42.6414 27.0462 43.0998 26.6682 43.4801C26.4319 43.7164 26.8005 44.0825 27.032 43.8463C27.3462 43.5274 27.573 43.0832 28.0077 42.9155C28.3384 42.7879 28.6432 42.5918 29.0046 42.5729C29.4922 42.5404 29.9815 42.5981 30.4481 42.743C30.7622 42.8604 31.0527 43.0332 31.3057 43.2533C31.5419 43.4541 31.7782 43.6691 31.8113 43.9999C31.8101 44.4866 31.7129 44.9682 31.5254 45.4173C31.2136 46.3482 31.0836 47.3215 30.8167 48.2688C30.6891 48.7413 30.4883 49.2138 30.3938 49.7099C30.3151 50.1786 30.2701 50.6523 30.2591 51.1274C30.2496 51.6347 30.1935 52.14 30.0914 52.637C30.0094 53.1279 29.8997 53.6138 29.763 54.0923C29.6 54.5648 29.3401 55.009 29.2905 55.5098C29.2949 55.7514 29.2814 55.993 29.2503 56.2327C29.1816 56.4443 29.1373 56.6631 29.118 56.8847C29.0921 57.3998 29.1653 57.8746 28.9763 58.366C28.8833 58.5712 28.8128 58.7859 28.766 59.0062C28.7282 59.2543 28.7968 59.5 28.7401 59.7457C28.6834 59.9914 28.5652 60.2749 28.4825 60.5395C28.4051 60.7965 28.3779 61.066 28.4022 61.3333C28.4102 61.6019 28.344 61.8676 28.2109 62.1011C28.1198 62.3503 28.0649 62.6112 28.0479 62.876C27.9824 63.1426 27.8765 63.3975 27.7336 63.632C27.6179 63.8824 27.5328 64.1446 27.4147 64.3927C27.3661 64.5042 27.3059 64.6103 27.2352 64.7092C27.1525 64.8132 27.0485 64.8959 26.9729 65.0069C26.8028 65.2432 26.8808 65.4983 26.8265 65.77L27.0627 65.581C25.9453 65.6755 25.0144 66.4598 23.8923 66.4811C23.824 66.4811 23.7585 66.5082 23.7102 66.5565C23.6619 66.6048 23.6348 66.6703 23.6348 66.7386C23.6348 66.8069 23.6619 66.8724 23.7102 66.9207C23.7585 66.969 23.824 66.9961 23.8923 66.9961L23.9112 67.0221Z" fill="#50735F"/>
<path d="M9.48633 44.7062C9.48633 45.0771 9.66588 45.4008 9.65643 45.7764C9.64698 46.1521 9.63516 46.5797 9.63044 46.9836C9.62514 47.3442 9.66161 47.7041 9.73911 48.0562C9.81707 48.42 9.79109 48.7909 9.88086 49.1571C9.97063 49.5233 10.1171 49.821 10.2163 50.1635C10.2954 50.5152 10.3264 50.876 10.3085 51.2361C10.2919 51.9732 10.1974 52.6961 10.2778 53.4332C10.3339 53.8294 10.3678 54.2285 10.3793 54.6286C10.3493 55.006 10.362 55.3856 10.4171 55.7602C10.4549 55.9398 10.514 56.1122 10.5353 56.2941C10.5492 56.4768 10.5753 56.6583 10.6132 56.8375C10.7246 57.1852 10.8106 57.5405 10.8707 57.9006C10.9085 58.2739 10.9062 58.6495 10.9534 59.0228C11.0147 59.3906 11.1096 59.752 11.2369 60.1024C11.3314 60.483 11.3601 60.8769 11.322 61.2671C11.3078 61.6687 11.3007 62.0704 11.2983 62.4743C11.2983 62.9468 11.2653 63.4406 11.2842 63.9225C11.3133 64.3504 11.3662 64.7763 11.4424 65.1983C11.4684 65.3636 11.5535 65.5125 11.5842 65.6708C11.5834 65.8709 11.6088 66.0702 11.6598 66.2637C11.7189 66.3937 11.837 66.4787 11.896 66.6016C11.9835 66.7646 11.9102 67.0126 11.896 67.1898H12.4323V67.0906C12.4323 67.0223 12.4052 66.9568 12.3569 66.9085C12.3086 66.8602 12.2431 66.8331 12.1748 66.8331C12.1065 66.8331 12.041 66.8602 11.9927 66.9085C11.9444 66.9568 11.9173 67.0223 11.9173 67.0906V67.1898C11.9173 67.2581 11.9444 67.3236 11.9927 67.3719C12.041 67.4202 12.1065 67.4473 12.1748 67.4473C12.2431 67.4473 12.3086 67.4202 12.3569 67.3719C12.4052 67.3236 12.4323 67.2581 12.4323 67.1898C12.4323 66.8473 12.5056 66.5354 12.2788 66.2448C12.1854 66.1596 12.1252 66.0441 12.1087 65.9188C12.1112 65.7376 12.0873 65.5569 12.0378 65.3825C11.942 65.0483 11.878 64.7058 11.8464 64.3596C11.8016 63.9454 11.7897 63.5283 11.811 63.1122C11.811 62.2948 11.8677 61.4727 11.8464 60.6552C11.8235 60.2854 11.7438 59.9212 11.6102 59.5756C11.501 59.2192 11.4406 58.8497 11.4306 58.477C11.4247 58.0991 11.3827 57.7225 11.3054 57.3525C11.1987 57.0186 11.1197 56.6765 11.0692 56.3296C11.0361 55.9587 10.8967 55.6208 10.8967 55.2381C10.8967 54.8554 10.918 54.4301 10.8778 54.0238C10.8377 53.6175 10.7786 53.2607 10.7668 52.8756C10.755 52.4906 10.7904 52.1456 10.814 51.7842C10.8566 51.0754 10.8825 50.3667 10.6203 49.6958C10.4468 49.3045 10.3405 48.8868 10.3061 48.4602C10.3061 48.0562 10.1478 47.6711 10.1525 47.279C10.1525 46.8325 10.1525 46.3859 10.1762 45.9394C10.1923 45.7378 10.186 45.5349 10.1573 45.3346C10.0917 45.132 10.0435 44.9241 10.0132 44.7133C10.0132 44.645 9.98603 44.5795 9.93774 44.5312C9.88944 44.4829 9.82394 44.4558 9.75565 44.4558C9.68735 44.4558 9.62186 44.4829 9.57356 44.5312C9.52527 44.5795 9.49814 44.645 9.49814 44.7133L9.48633 44.7062Z" fill="#50735F"/>
<path d="M18.2044 44.4986C18.2044 44.8057 18.1028 45.1317 18.3107 45.3939C18.5186 45.6562 18.3273 46.0176 18.3651 46.2964C18.4029 46.5752 18.5352 46.8752 18.5635 47.1847C18.5907 47.548 18.5907 47.9128 18.5635 48.2761C18.5186 49.0132 18.5068 49.755 18.4383 50.4898C18.3627 51.2906 18.1855 52.0726 18.0674 52.8664C17.9635 53.6654 17.9138 54.4704 17.9186 55.2761C17.9186 56.0392 17.98 56.7999 17.9564 57.563C17.9327 58.3261 17.7201 59.0844 17.6918 59.8593C17.654 60.6744 17.6918 61.4918 17.6705 62.3068C17.6839 62.7603 17.6666 63.2141 17.6185 63.6652C17.5387 64.0714 17.4882 64.4827 17.4673 64.8961C17.4673 65.6592 17.6658 66.4695 17.4295 67.2137L17.6091 67.0341L17.4697 67.0577C17.1437 67.1144 17.2807 67.6129 17.6067 67.5539L17.7461 67.5302C17.7889 67.5182 17.8279 67.4953 17.8593 67.4639C17.8907 67.4324 17.9136 67.3935 17.9257 67.3507C18.1359 66.6892 18.032 65.9781 17.9942 65.3001C17.9724 64.9417 17.9898 64.5821 18.0461 64.2275C18.1189 63.8375 18.1631 63.4427 18.1784 63.0463C18.1784 62.2241 18.1784 61.3925 18.1926 60.5799C18.1926 60.1759 18.1926 59.7695 18.2399 59.3679C18.2871 58.9663 18.3722 58.593 18.4218 58.2032C18.4864 57.4291 18.4919 56.6512 18.4383 55.8762C18.4139 55.0881 18.436 54.2992 18.5045 53.5137C18.5753 52.7128 18.7667 51.9285 18.8754 51.13C18.9793 50.3693 18.9817 49.6086 19.0384 48.8455C19.0951 48.0824 19.1943 47.2201 18.9486 46.4547C18.891 46.3041 18.8652 46.1432 18.873 45.9822C18.9041 45.7893 18.9105 45.5932 18.8919 45.3987C18.8785 45.3223 18.8505 45.2493 18.8092 45.1837C18.7785 45.1364 18.7194 45.0963 18.6982 45.0443C18.6751 44.8599 18.6839 44.6729 18.7242 44.4915C18.718 44.4271 18.6881 44.3674 18.6403 44.3239C18.5924 44.2804 18.5301 44.2563 18.4655 44.2563C18.4008 44.2563 18.3385 44.2804 18.2907 44.3239C18.2429 44.3674 18.213 44.4271 18.2068 44.4915L18.2044 44.4986Z" fill="#50735F"/>
<path d="M4.67201 41.0281C4.24204 40.8651 3.79554 40.7564 3.3632 40.5981C2.98521 40.4587 2.482 40.2698 2.28119 39.8894C1.9977 39.3578 2.47964 38.6397 2.70408 38.1695C2.79364 37.9361 2.94465 37.7312 3.14113 37.5765C3.37604 37.4417 3.63544 37.355 3.90421 37.3214C3.95281 37.3073 3.99624 37.2794 4.02919 37.241C4.06213 37.2026 4.08315 37.1554 4.08968 37.1053C4.0962 37.0551 4.08793 37.0041 4.0659 36.9586C4.04387 36.913 4.00902 36.8749 3.96563 36.8489C3.73304 36.7448 3.47754 36.7025 3.22382 36.7261C2.95483 36.7742 2.68203 36.798 2.40877 36.7969C1.92739 36.7427 1.46994 36.5581 1.08579 36.263C0.24475 35.5968 0.506983 34.5668 0.884978 33.721C0.970026 33.5273 1.06452 33.3336 1.1543 33.1398C1.21658 32.978 1.31613 32.8331 1.44488 32.7169C1.69804 32.5382 1.99751 32.4364 2.30718 32.424C3.01812 32.3787 3.73074 32.4809 4.40033 32.724C4.83743 32.8499 5.24807 33.054 5.61227 33.3265C5.83195 33.5129 6.0126 33.7409 6.14383 33.9974C6.27184 34.2791 6.41947 34.5514 6.58561 34.8125C6.6095 34.85 6.64249 34.8809 6.68152 34.9024C6.72054 34.9238 6.76434 34.935 6.80886 34.935C6.85338 34.935 6.89718 34.9238 6.9362 34.9024C6.97523 34.8809 7.00822 34.85 7.03211 34.8125C7.26836 34.4675 7.39593 34.0612 7.61328 33.6997C7.7342 33.4963 7.90413 33.3264 8.10757 33.2055C8.31101 33.0846 8.54149 33.0165 8.77798 33.0075C9.20849 32.9941 9.63389 33.1039 10.0041 33.3241C10.1167 33.4045 10.2081 33.511 10.2707 33.6344C10.3332 33.7578 10.3649 33.8945 10.3632 34.0328C10.4081 34.4746 10.1836 34.8195 10.0632 35.2283C9.96157 35.5779 10.3679 35.8236 10.6112 35.9866C10.9278 36.2016 11.3342 36.4426 11.3342 36.8749C11.3263 37.052 11.3041 37.2282 11.268 37.4017C11.2503 37.5891 11.2008 37.772 11.1215 37.9427C10.9349 38.2924 10.486 38.4318 10.1388 38.5593C9.99579 38.6226 9.8415 38.6564 9.68516 38.6586C9.55993 38.6393 9.43817 38.6019 9.3237 38.5475C9.20993 38.4943 9.08527 38.4685 8.95972 38.4722C8.83417 38.4759 8.71124 38.509 8.60079 38.5688C8.55198 38.5977 8.51386 38.6416 8.49214 38.694C8.47042 38.7464 8.46626 38.8044 8.4803 38.8594C8.5727 39.0912 8.72419 39.2948 8.91972 39.45C9.02149 39.5288 9.09805 39.6356 9.14002 39.7573C9.18198 39.879 9.18752 40.0103 9.15597 40.1351C9.05675 40.591 8.58662 41.5053 7.99836 41.158C7.93967 41.1269 7.87118 41.1196 7.80724 41.1377C7.7433 41.1559 7.68885 41.198 7.65529 41.2554C7.62172 41.3128 7.61164 41.3809 7.62714 41.4455C7.64265 41.5102 7.68255 41.5663 7.73849 41.6022C7.90689 41.7055 8.10231 41.7562 8.2997 41.7478C8.4971 41.7394 8.68749 41.6722 8.84649 41.5549C9.16115 41.311 9.40099 40.9835 9.53869 40.6099C9.63282 40.4279 9.68371 40.2267 9.6874 40.0218C9.69108 39.8169 9.64747 39.614 9.55995 39.4287C9.41348 39.1712 9.07092 39.0153 8.97878 38.7341C8.93862 38.831 8.89846 38.9279 8.86066 39.0247C9.05675 38.9184 9.33315 39.1358 9.54105 39.1688C9.84267 39.1964 10.1462 39.1425 10.4199 39.0129C10.8144 38.857 11.2255 38.6987 11.483 38.3443C11.7405 37.99 11.7783 37.5435 11.8303 37.1324C11.8633 36.9234 11.8451 36.7095 11.7772 36.5091C11.7093 36.3087 11.5938 36.1277 11.4405 35.9819C11.2447 35.807 11.0345 35.6489 10.8121 35.5094C10.7271 35.4254 10.6371 35.3465 10.5427 35.2731C10.5073 35.233 10.5167 35.2731 10.5664 35.3629C10.5664 35.3936 10.5664 35.396 10.5664 35.3629L10.5947 35.2968C10.7908 34.7959 10.942 34.3518 10.8522 33.8202C10.8293 33.6481 10.7719 33.4824 10.6834 33.333C10.5949 33.1836 10.4771 33.0536 10.3372 32.9508C9.93697 32.6866 9.4741 32.5325 8.99532 32.5043C8.69562 32.4818 8.39475 32.5286 8.11612 32.6413C7.83749 32.754 7.58861 32.9294 7.38885 33.154C7.02975 33.5698 6.91635 34.1203 6.59269 34.5715H7.0392C6.68483 34.0777 6.536 33.4918 6.08004 33.0666C5.70033 32.7429 5.26148 32.4958 4.78777 32.339C4.03279 32.0319 3.22078 31.8901 2.40641 31.9232C2.00675 31.9304 1.61527 32.0376 1.2677 32.235C0.903878 32.4713 0.75268 32.8114 0.575495 33.18C0.143164 34.099 -0.322243 35.2283 0.306173 36.1732C0.673937 36.6728 1.2017 37.0313 1.80161 37.1891C2.10087 37.2903 2.41738 37.3305 2.73243 37.3072C3.049 37.2741 3.40337 37.1631 3.70812 37.3072L3.76955 36.8347C3.29097 36.8843 2.84758 37.1089 2.52453 37.4655C2.36441 37.6968 2.22826 37.9437 2.11819 38.2026C1.96392 38.4918 1.84115 38.7967 1.752 39.1121C1.68055 39.3364 1.66912 39.5755 1.71886 39.8055C1.7686 40.0356 1.87778 40.2486 2.0355 40.4233C2.35439 40.7217 2.73629 40.9445 3.15295 41.0754C3.60654 41.2478 4.08139 41.3588 4.53499 41.5313C4.84683 41.6494 4.97913 41.151 4.67201 41.0352V41.0281Z" fill="#50735F"/>
<path d="M18.6739 33.8959C17.8021 33.8959 16.5996 34.1321 16.472 35.181C16.4411 35.4237 16.4654 35.6702 16.5431 35.9022C16.6208 36.1342 16.75 36.3455 16.9209 36.5206C17.2453 36.7777 17.6507 36.9109 18.0643 36.8962C18.5368 36.9127 19.0282 36.8418 19.4818 36.9576L19.3684 36.5253C19.0695 36.788 18.7539 37.0311 18.4234 37.2529C18.1359 37.482 17.8905 37.7594 17.6982 38.0727C17.4902 38.3926 17.3093 38.7292 17.1572 39.0791C17.0717 39.2403 17.0271 39.42 17.0271 39.6024C17.0271 39.7848 17.0717 39.9645 17.1572 40.1257C17.3543 40.3765 17.6228 40.5618 17.9273 40.6572C18.2225 40.7772 18.5311 40.8613 18.8463 40.9077C19.4842 41.0022 20.2473 41.0352 20.7363 40.5462C21.2253 40.0572 21.1733 39.3555 21.1733 38.7271C21.1733 38.6588 21.1462 38.5933 21.0979 38.545C21.0496 38.4967 20.9841 38.4696 20.9158 38.4696C20.8475 38.4696 20.782 38.4967 20.7338 38.545C20.6855 38.5933 20.6583 38.6588 20.6583 38.7271C20.6404 39.2302 20.8087 39.7223 21.1308 40.1091C21.3668 40.4655 21.714 40.7337 22.1183 40.8722C22.3327 40.9229 22.5525 40.9467 22.7727 40.9431C23.1153 40.9431 23.4579 40.9596 23.8028 40.9691C24.372 41.0157 24.9448 40.9556 25.4919 40.7919C25.9751 40.6228 26.4211 40.3621 26.8055 40.0241C27.114 39.7182 27.3323 39.3332 27.4362 38.9114C27.6725 38.0869 27.6725 36.9978 27.2142 36.2512C26.6472 35.3393 25.5014 35.1314 24.5068 35.2401V35.7551C25.0525 35.6937 25.4872 35.2141 25.7447 34.7582C25.8714 34.5172 25.914 34.2407 25.8656 33.9728C25.8172 33.7048 25.6807 33.4607 25.4778 33.2792C24.6178 32.4169 23.0302 32.8705 22.2081 33.5604C22.3522 33.6431 22.4963 33.7258 22.6381 33.8108C22.7485 33.5394 22.802 33.2482 22.7955 32.9552C22.789 32.6623 22.7226 32.3737 22.6003 32.1075C22.3422 31.6008 21.9002 31.212 21.3647 31.0207C21.0613 30.8936 20.7352 30.8295 20.4062 30.8324C20.0772 30.8352 19.7523 30.9049 19.4511 31.0373C18.9127 31.3547 18.4966 31.8439 18.2699 32.4264C18.0006 33.0217 17.7974 33.8037 18.303 34.3353C18.5392 34.5715 18.8959 34.2101 18.6668 33.9691C18.3502 33.6407 18.5463 33.0737 18.7022 32.7123C18.8749 32.2509 19.1788 31.8502 19.5763 31.5594C20.3536 31.068 21.6128 31.446 22.0758 32.2185C22.1986 32.4399 22.2685 32.6867 22.28 32.9396C22.2915 33.1924 22.2442 33.4446 22.142 33.6761C22.0404 33.9407 22.3971 34.073 22.5719 33.9266C22.9158 33.6532 23.3213 33.4683 23.7532 33.3879C24.1524 33.3076 24.6462 33.2887 24.9911 33.5391C25.2722 33.7399 25.4943 34.1226 25.3242 34.4605C25.1825 34.7393 24.8517 35.2047 24.5092 35.2425C24.1666 35.2803 24.1784 35.7953 24.5092 35.7575C25.2392 35.6771 26.092 35.7386 26.6212 36.3127C27.115 36.8537 27.1362 37.7656 27.0157 38.4389C26.965 38.8143 26.824 39.1718 26.6047 39.4807C26.3332 39.7802 25.9993 40.0165 25.6266 40.1729C25.2078 40.3691 24.7494 40.4661 24.2871 40.4564C23.7437 40.4564 23.1933 40.4399 22.6499 40.421C22.4703 40.4243 22.2922 40.3874 22.1287 40.313C21.9652 40.2386 21.8204 40.1286 21.7049 39.991C21.5335 39.828 21.398 39.6309 21.3073 39.4124C21.2166 39.1939 21.1726 38.9589 21.1781 38.7224H20.6631C20.6631 39.1476 20.7245 39.6674 20.4882 40.043C20.2095 40.4942 19.5952 40.4753 19.1322 40.4281C18.6691 40.3808 18.0171 40.2627 17.6604 39.9296C17.4241 39.7146 17.573 39.3768 17.6911 39.1358C17.8337 38.8512 17.9914 38.5744 18.1636 38.3066C18.3467 38.0208 18.5814 37.7717 18.8558 37.5718C19.1699 37.3688 19.467 37.1405 19.7441 36.8891C19.7751 36.8568 19.7973 36.817 19.8085 36.7736C19.8196 36.7302 19.8193 36.6847 19.8077 36.6414C19.796 36.5981 19.7734 36.5586 19.742 36.5267C19.7105 36.4947 19.6714 36.4715 19.6283 36.4591C19.1652 36.3785 18.6941 36.3531 18.225 36.3835C17.847 36.3835 17.3887 36.3646 17.1595 36.0126C16.9304 35.6606 16.8855 35.0487 17.2587 34.7511C17.632 34.4534 18.2037 34.4132 18.6762 34.4085C18.7406 34.4024 18.8003 34.3724 18.8438 34.3246C18.8873 34.2768 18.9113 34.2145 18.9113 34.1498C18.9113 34.0852 18.8873 34.0229 18.8438 33.975C18.8003 33.9272 18.7406 33.8973 18.6762 33.8911L18.6739 33.8959Z" fill="#50735F"/>
<path d="M10.5434 35.3746C10.6372 35.4055 10.7372 35.4121 10.8343 35.3939C10.9314 35.3758 11.0223 35.3334 11.0985 35.2707C11.1445 35.2235 11.1934 35.1793 11.245 35.1384C11.344 35.091 11.4502 35.0607 11.5592 35.0486C12.0317 34.9399 12.5585 34.7297 13.0452 34.9092C13.2737 34.9953 13.4792 35.1331 13.6456 35.3117C13.812 35.4904 13.9348 35.7052 14.0044 35.9392C14.0319 36.1979 14.0192 36.4593 13.9666 36.7141C13.9294 36.969 13.9398 37.2285 13.9973 37.4796C14.0166 37.5446 14.0603 37.5997 14.1194 37.6332C14.1784 37.6667 14.2481 37.676 14.3139 37.6591C14.6281 37.5811 14.9399 37.378 15.2588 37.3922C15.4158 37.4068 15.5663 37.4619 15.6955 37.5522C15.8247 37.6425 15.9282 37.7648 15.9959 37.9072C16.1527 38.2255 16.2671 38.5631 16.3361 38.9112C16.46 39.308 16.4835 39.7292 16.4046 40.1373L16.5842 39.9578C16.2783 40.044 15.9777 40.1481 15.6841 40.2696L16.0007 40.4492L15.9652 40.3381C15.8589 40.0263 15.3628 40.161 15.4667 40.4752C15.4809 40.513 15.4927 40.5484 15.5045 40.5862C15.5238 40.6513 15.5676 40.7064 15.6266 40.7398C15.6856 40.7733 15.7554 40.7826 15.8211 40.7658C16.1152 40.6453 16.4157 40.5412 16.7212 40.4539C16.7651 40.4442 16.8053 40.4221 16.8372 40.3903C16.869 40.3585 16.891 40.3183 16.9008 40.2744C17.0032 39.7765 16.9804 39.2611 16.8346 38.7742C16.7513 38.3424 16.5973 37.9273 16.3787 37.5457C16.2753 37.3771 16.1379 37.232 15.9751 37.1197C15.8124 37.0074 15.6279 36.9304 15.4337 36.8937C14.9753 36.8228 14.6021 37.0543 14.1721 37.163L14.491 37.3425C14.3469 36.7944 14.6493 36.2275 14.4627 35.6888C14.2692 35.189 13.8994 34.7772 13.4232 34.5312C12.9176 34.2666 12.3506 34.3257 11.8167 34.458C11.5625 34.504 11.3127 34.572 11.0702 34.6611C10.9832 34.7035 10.9035 34.7593 10.8339 34.8265C10.7631 34.8903 10.7796 34.9116 10.6851 34.8903C10.3615 34.8171 10.2244 35.3155 10.5481 35.3864L10.5434 35.3746Z" fill="#50735F"/>
<path d="M27.0803 36.0338C27.2611 35.7911 27.4741 35.5741 27.7134 35.3888C27.8452 35.3045 27.9926 35.2476 28.1468 35.2217C28.3011 35.1957 28.459 35.2011 28.6111 35.2376C28.8993 35.2919 29.1923 35.3959 29.1687 35.7385C29.145 36.081 28.9324 36.3976 28.949 36.759C28.9502 36.827 28.9777 36.8917 29.0257 36.9398C29.0738 36.9878 29.1386 37.0153 29.2065 37.0165C29.6223 37.0165 29.9152 36.6882 30.3168 36.6574C30.6794 36.6175 31.0462 36.6645 31.387 36.7945C32.0131 37.0685 32.4265 37.7654 32.5399 38.4198C32.5767 38.577 32.5804 38.7401 32.5507 38.8987C32.521 39.0573 32.4586 39.208 32.3674 39.3412C32.1664 39.5695 31.9203 39.7538 31.6445 39.8822C31.3577 40.0089 31.0923 40.1795 30.8578 40.3878C30.7641 40.493 30.7134 40.6296 30.7155 40.7704C30.7177 40.9113 30.7727 41.0462 30.8696 41.1485C31.0374 41.3847 31.3421 41.621 31.3776 41.8809C31.3929 41.9977 31.3929 42.116 31.3776 42.2329C31.3676 42.2793 31.3526 42.3244 31.3327 42.3675C31.3587 42.3061 31.4272 42.3675 31.2949 42.3156C30.9854 42.1951 30.8507 42.6935 31.1579 42.8117C31.8666 43.0857 31.9918 42.1029 31.8477 41.6304C31.7848 41.4604 31.6875 41.3052 31.5618 41.1745C31.4508 41.0445 31.3469 40.9028 31.2358 40.7729C31.2028 40.7327 31.2358 40.6973 31.2075 40.7729C31.2311 40.7185 31.3256 40.6666 31.3752 40.6358C31.5315 40.5342 31.6932 40.4412 31.8595 40.3571C32.1879 40.1997 32.483 39.9807 32.7289 39.7121C32.9797 39.4042 33.1031 39.012 33.0738 38.6159C33.0472 38.2103 32.9336 37.8151 32.7408 37.4572C32.548 37.0993 32.2805 36.7871 31.9564 36.5417C31.5662 36.2794 31.1059 36.1411 30.6358 36.1448C30.3867 36.1239 30.136 36.1536 29.8987 36.2322C29.6624 36.3196 29.4545 36.511 29.2041 36.5086C29.2892 36.5937 29.3742 36.6811 29.4616 36.7661C29.4741 36.5498 29.5236 36.3372 29.6081 36.1377C29.6865 35.9155 29.702 35.676 29.653 35.4455C29.5894 35.2632 29.4761 35.1024 29.3257 34.9813C29.1754 34.8602 28.9941 34.7837 28.8025 34.7604C28.399 34.6536 27.9709 34.6921 27.5929 34.8691C27.2491 35.0772 26.9503 35.3519 26.7141 35.677C26.4991 35.9274 26.8629 36.2936 27.0779 36.0408L27.0803 36.0338Z" fill="#50735F"/>
<path d="M9.94419 32.5303C9.51658 32.3838 9.37011 31.7979 9.28506 31.4105C9.20001 31.023 9.12441 30.6143 9.46224 30.2883C9.66934 30.0905 9.92501 29.951 10.2034 29.8837C10.4817 29.8165 10.7729 29.8241 11.0475 29.9056C11.3086 29.9749 11.5436 30.1195 11.7231 30.3214C11.8956 30.5245 12.0326 30.7561 12.2169 30.9522C12.2533 30.987 12.2991 31.0105 12.3486 31.0198C12.3982 31.0291 12.4493 31.0237 12.4959 31.0045C12.5425 30.9852 12.5824 30.9528 12.6109 30.9112C12.6394 30.8696 12.6552 30.8206 12.6563 30.7702C12.621 30.2221 12.7458 29.6754 13.0154 29.1968C13.2918 28.7243 13.8257 28.67 14.3242 28.7243C14.8574 28.7657 15.3633 28.9769 15.7677 29.3268C16.1209 29.6725 16.3266 30.1415 16.3417 30.6356C16.371 30.9726 16.3267 31.312 16.2118 31.6302C16.0747 31.9451 15.9169 32.2505 15.7393 32.5445C15.7118 32.5939 15.7008 32.6509 15.7081 32.707C15.7153 32.7631 15.7403 32.8154 15.7795 32.8563C16.0157 33.076 16.2992 33.1374 16.5662 33.2981C16.9276 33.5154 16.8804 33.9312 16.878 34.2974C16.878 34.3657 16.9052 34.4312 16.9534 34.4795C17.0017 34.5278 17.0672 34.5549 17.1355 34.5549C17.2038 34.5549 17.2693 34.5278 17.3176 34.4795C17.3659 34.4312 17.393 34.3657 17.393 34.2974C17.393 33.8249 17.393 33.369 17.041 33.0169C16.7835 32.7642 16.4008 32.7358 16.1433 32.4925C16.1575 32.5964 16.1716 32.7004 16.1835 32.8043C16.3642 32.4984 16.5282 32.183 16.6748 31.8593C16.8101 31.5193 16.8728 31.1548 16.8591 30.7891C16.8686 30.164 16.6483 29.5571 16.2402 29.0834C15.7877 28.6267 15.1957 28.334 14.5581 28.2519C13.9486 28.1574 13.1973 28.1857 12.7602 28.6842C12.2878 29.2205 12.0964 30.0804 12.1366 30.7797L12.576 30.5978C12.3515 30.3615 12.198 30.0591 11.9594 29.8323C11.6811 29.5894 11.3423 29.4262 10.9789 29.3599C10.6216 29.2971 10.2543 29.3246 9.91025 29.4397C9.56621 29.5548 9.25631 29.7539 9.00865 30.019C8.58104 30.4915 8.67318 31.0467 8.79603 31.6184C8.91888 32.1901 9.2071 32.835 9.80244 33.0358C10.1166 33.1422 10.2513 32.646 9.93946 32.5397L9.94419 32.5303Z" fill="#50735F"/>
<path d="M15.9322 28.7715L16.0881 28.7432C16.1311 28.7315 16.1703 28.7088 16.2018 28.6773C16.2333 28.6458 16.256 28.6066 16.2677 28.5636C16.3457 28.2163 16.6929 27.3517 17.182 27.5312C17.3969 27.6486 17.5739 27.8248 17.6923 28.0392C17.8387 28.2518 17.9687 28.4762 18.134 28.6747C18.2711 28.8377 18.5026 28.7243 18.5664 28.5613C18.6426 28.2675 18.6603 27.9617 18.6183 27.6612C18.5977 27.4843 18.613 27.3051 18.6632 27.1343C18.7105 27.0422 18.8995 26.9949 19.0223 26.9571C19.333 26.8696 19.6486 26.8002 19.9673 26.7492C21.1131 26.5673 22.4385 27.1107 22.9417 28.2093C23.063 28.4687 23.1029 28.7588 23.056 29.0414C23.0092 29.3239 22.8779 29.5856 22.6794 29.7921C22.6403 29.8327 22.6154 29.885 22.6086 29.9411C22.6018 29.9971 22.6134 30.0538 22.6417 30.1026C22.67 30.1515 22.7134 30.1898 22.7654 30.2117C22.8174 30.2337 22.8751 30.2382 22.9298 30.2244C23.297 30.1266 23.6791 30.0978 24.0567 30.1394C24.3615 30.163 24.8269 30.2339 25.0017 30.5008C25.0351 30.5651 25.0525 30.6364 25.0525 30.7087C25.0525 30.7811 25.0351 30.8524 25.0017 30.9166C24.9214 31.1269 24.73 31.1954 24.5292 31.2663C24.1371 31.4033 23.6858 31.564 23.8063 32.0695C23.8536 32.2727 23.9457 32.4641 23.993 32.6672C24.0124 32.7376 24.0124 32.8119 23.993 32.8822C23.993 32.8657 23.993 32.8562 24.0213 32.8491C23.9635 32.86 23.9043 32.86 23.8465 32.8491C23.5157 32.8231 23.5181 33.3382 23.8465 33.3642C23.9738 33.3882 24.1056 33.3687 24.2205 33.3087C24.3353 33.2487 24.4266 33.1517 24.4796 33.0334C24.5361 32.8089 24.5195 32.5722 24.4324 32.3577C24.4017 32.2562 24.3639 32.1569 24.3308 32.0577C24.3166 32.0128 24.3024 31.9679 24.2906 31.923C24.2883 31.9054 24.2844 31.888 24.2788 31.8711C24.3521 31.8711 24.1607 31.9372 24.3048 31.8711C24.345 31.8569 24.3828 31.8309 24.4229 31.8144C24.5552 31.76 24.697 31.7222 24.8293 31.6679C24.9733 31.6212 25.1052 31.5432 25.2155 31.4394C25.3258 31.3356 25.4117 31.2088 25.4671 31.0678C25.5651 30.8437 25.5769 30.5913 25.5002 30.3591C25.3348 29.9055 24.8293 29.7071 24.3899 29.6315C23.8521 29.5296 23.2985 29.549 22.7692 29.6882L23.0196 30.1181C23.2454 29.8849 23.4091 29.5988 23.4958 29.2859C23.5824 28.9731 23.5893 28.6435 23.5157 28.3274C23.3282 27.7182 22.9381 27.1913 22.4101 26.8343C21.8084 26.3957 21.0777 26.1704 20.3335 26.1941C19.9384 26.2208 19.5467 26.2857 19.1641 26.3878C18.9029 26.4294 18.6515 26.5183 18.4223 26.65C17.8411 27.0611 18.2782 27.8738 18.0679 28.4219L18.5002 28.3061C18.1057 27.8336 17.8316 27.0469 17.1229 26.9949C16.4142 26.943 15.9086 27.8147 15.7716 28.4124C15.8306 28.351 15.8897 28.2919 15.9511 28.2329L15.7952 28.2612C15.4692 28.3226 15.6086 28.8188 15.9322 28.7573V28.7715Z" fill="#50735F"/>
<path d="M30.4271 27.2431C29.8342 26.6288 28.6647 26.9525 28.1875 27.562C28.0119 27.772 27.896 28.0253 27.8519 28.2955C27.8079 28.5656 27.8373 28.8427 27.9371 29.0976C28.1332 29.5299 28.5797 29.7047 28.9955 29.8607L28.8065 29.6244C28.8065 29.7284 28.6506 29.8205 28.5702 29.8796C28.451 29.9699 28.352 30.0841 28.2797 30.215C28.1096 30.5552 28.1946 31.0159 28.2111 31.3821C28.2122 31.6748 28.2934 31.9615 28.4458 32.2114C28.5982 32.4613 28.8161 32.6647 29.0758 32.7996C29.768 33.1516 30.5996 33.1728 31.3579 33.1067C31.5082 33.1019 31.6555 33.064 31.7894 32.9959C31.9233 32.9277 32.0406 32.8308 32.1328 32.7122C32.3026 32.4859 32.4313 32.2316 32.5132 31.9609C32.6951 31.3656 32.7494 30.4844 32.0856 30.1607C32.0512 30.1418 32.013 30.1307 31.9738 30.1284C31.9346 30.126 31.8954 30.1324 31.8589 30.1471C31.8225 30.1618 31.7898 30.1845 31.7632 30.2134C31.7367 30.2423 31.7168 30.2767 31.7052 30.3143C31.5847 30.7466 32.01 30.912 32.3549 30.9474C32.7038 30.9793 33.0549 30.9793 33.4038 30.9474C33.6155 30.9503 33.8235 30.8928 34.0035 30.7814C34.1835 30.6701 34.3279 30.5096 34.4197 30.319C34.656 29.7709 34.4481 29.2417 34.0488 28.8377C33.8301 28.5984 33.5535 28.4195 33.2456 28.318C32.903 28.2526 32.5526 28.2391 32.2061 28.2778C32.2297 28.4479 32.251 28.6156 32.2746 28.7857C32.8038 28.5731 33.2975 28.3818 33.3897 27.7486C33.47 27.1982 33.1534 26.8367 32.6644 26.6501C32.4281 26.5627 32.1919 26.506 31.9557 26.4351C31.7385 26.3473 31.4984 26.334 31.2729 26.3973C30.7059 26.6075 30.3279 27.1651 30.0232 27.6541C29.8483 27.9376 30.2925 28.1975 30.4673 27.914C30.6784 27.5109 30.989 27.1685 31.3698 26.9194C31.4213 26.8907 31.4788 26.8741 31.5377 26.8708C31.5966 26.8675 31.6555 26.8777 31.71 26.9005L32.2769 27.0706C32.5392 27.1486 32.8723 27.243 32.877 27.5691C32.877 28.0416 32.4825 28.1455 32.1234 28.2896C31.873 28.3912 31.8871 28.8046 32.1919 28.7952C32.4706 28.7645 32.7519 28.7645 33.0306 28.7952C33.2883 28.8697 33.5184 29.0184 33.6921 29.2228C33.9614 29.5039 34.1764 30.0426 33.77 30.319C33.5125 30.4962 33.1322 30.4347 32.825 30.4418C32.6607 30.4548 32.4956 30.4548 32.3313 30.4418C32.2982 30.4418 32.2061 30.3993 32.1777 30.4088C32.0903 30.4324 32.1777 30.3946 32.1612 30.4088C32.1754 30.4088 32.1612 30.5576 32.1801 30.4584L31.7997 30.6143C32.2155 30.8175 32.1092 31.4246 32.0053 31.7955C31.9491 32.0062 31.8563 32.2053 31.7312 32.3838C31.6637 32.4695 31.5751 32.5363 31.4741 32.5777C31.3731 32.6191 31.2631 32.6337 31.1548 32.62C30.5334 32.6366 29.8743 32.6625 29.305 32.3625C28.8585 32.1263 28.7238 31.7341 28.712 31.2522C28.712 30.9403 28.5939 30.5576 28.8514 30.3237C29.0711 30.1253 29.2908 29.9646 29.3026 29.641C29.3018 29.5848 29.283 29.5304 29.249 29.4858C29.215 29.4411 29.1675 29.4086 29.1136 29.3929C28.8537 29.296 28.5112 29.1897 28.386 28.9204C28.3216 28.743 28.3079 28.5511 28.3463 28.3663C28.3846 28.1815 28.4736 28.011 28.6033 27.8738C28.9081 27.5336 29.6782 27.2619 30.0421 27.6376C30.2783 27.8738 30.6374 27.5124 30.4082 27.2738L30.4271 27.2431Z" fill="#50735F"/>
<path d="M39.5781 31.9538C38.9284 31.8971 38.2858 31.9373 37.6338 31.9326C37.0573 31.9326 36.5187 31.9609 36.1738 32.4854C35.8725 32.9808 35.7492 33.5642 35.8241 34.1391C35.8431 34.43 35.9411 34.7102 36.1076 34.9494C36.2802 35.1497 36.5064 35.2964 36.7596 35.3723C37.3196 35.5779 38.1157 35.6889 38.6496 35.3723C38.5646 35.2235 38.4772 35.0747 38.3897 34.9258C37.7566 35.3983 37.4991 36.4969 38.1819 37.052C38.3569 37.2136 38.584 37.3069 38.822 37.3152C39.06 37.3234 39.2931 37.246 39.4788 37.0969C39.6862 36.8923 39.8811 36.6753 40.0624 36.4472C40.2847 36.2003 40.4937 35.9416 40.6884 35.6724H40.2443C40.2679 35.7845 40.2679 35.9004 40.2443 36.0126C40.2448 36.16 40.2928 36.3033 40.3813 36.4213C40.5933 36.6609 40.8765 36.8265 41.1893 36.8938C41.849 37.0683 42.5398 37.0901 43.2092 36.9575C43.5315 36.8935 43.8352 36.7574 44.0974 36.5594C44.3597 36.3614 44.5737 36.1066 44.7235 35.8141C44.9928 35.2991 45.1417 34.5691 44.8109 34.0446C44.4802 33.5202 43.8092 33.5485 43.3297 33.2485L43.4572 33.4705C43.4572 33.2556 43.7124 33.0784 43.8423 32.9366C44.0092 32.7518 44.1349 32.5336 44.2109 32.2964C44.3502 31.8995 44.4802 31.4577 44.3172 31.0467C44.1542 30.6356 43.6888 30.4206 43.2493 30.3568C42.8099 30.293 42.2736 30.2245 41.8531 30.3804C41.6299 30.4704 41.447 30.6383 41.3381 30.8529C41.2247 31.0514 41.1609 31.2616 40.9388 31.3561L41.2909 31.4483C40.9294 30.9144 40.3459 30.0922 39.5875 30.3379C38.9922 30.5316 38.6732 31.4412 38.7323 32.0153C38.7654 32.3413 39.2828 32.3436 39.2473 32.0153C39.2326 31.7927 39.269 31.5696 39.3536 31.3632C39.4198 31.1813 39.5379 30.8907 39.7364 30.8293C40.1947 30.6639 40.6435 31.4105 40.8467 31.7081C40.8829 31.7652 40.9393 31.8064 41.0046 31.8235C41.0699 31.8406 41.1393 31.8323 41.1987 31.8003C41.3817 31.7164 41.5326 31.5755 41.6287 31.3987C41.7003 31.219 41.8044 31.054 41.9358 30.912C42.1007 30.829 42.2863 30.7962 42.4697 30.8175C42.6925 30.8131 42.9153 30.8265 43.1359 30.8577C43.5187 30.912 43.8872 31.0561 43.8778 31.4932C43.8636 31.9238 43.696 32.3352 43.4053 32.6531C43.2268 32.8052 43.084 32.9948 42.9871 33.2083C42.9429 33.3127 42.9322 33.4283 42.9564 33.5391C42.9989 33.6761 43.1407 33.7399 43.2588 33.7966C43.5777 33.9501 44.0101 33.9761 44.2817 34.2053C44.6125 34.484 44.4944 35.0747 44.3479 35.4172C44.2526 35.659 44.1028 35.8756 43.9102 36.0501C43.7177 36.2246 43.4875 36.3524 43.2375 36.4236C42.6713 36.559 42.0817 36.5647 41.5129 36.4402C41.305 36.3976 40.8751 36.3102 40.7806 36.0834C40.7618 35.9907 40.7618 35.8951 40.7806 35.8023C40.7776 35.6655 40.7453 35.531 40.6861 35.4078C40.601 35.214 40.3411 35.2684 40.2419 35.4078C39.9464 35.7978 39.631 36.1723 39.2969 36.5299C39.2072 36.6339 39.1032 36.7662 38.9591 36.8016C38.8034 36.8138 38.6489 36.7666 38.5268 36.6693C38.1157 36.3575 38.2787 35.6393 38.6449 35.3605C38.9024 35.1644 38.6803 34.7415 38.385 34.914C38.0141 35.1337 37.4518 35.0321 37.062 34.914C36.8708 34.8733 36.6924 34.7865 36.5423 34.6612C36.4106 34.4999 36.3351 34.3 36.3273 34.0919C36.2633 33.6265 36.3573 33.1532 36.5943 32.7476C36.8494 32.3436 37.3597 32.4311 37.7755 32.4287C38.3779 32.4287 38.9709 32.398 39.5733 32.4523C39.9041 32.4807 39.9017 31.9656 39.5733 31.9349L39.5781 31.9538Z" fill="#50735F"/>
<path opacity="0.8" d="M37.3573 12.8058C35.2487 12.6161 33.9015 13.4072 33.1551 15.2448C32.1437 17.8738 37.1368 20.3541 39.482 18.3609C40.7802 17.2576 40.9124 16.2251 39.9691 14.2665C39.4451 13.2255 38.8584 12.8748 37.3573 12.8058ZM39.0624 16.5942C38.6025 19.1084 34.3083 18.299 34.5447 15.6917C34.6071 14.577 34.7746 14.4346 36.2966 14.2735C38.1397 13.981 39.362 14.9948 39.0624 16.5942Z" fill="#50735F"/>
<path opacity="0.8" d="M24.2426 1.2056C22.9729 1.38114 22.6785 1.56189 22.3096 2.70947C22.0727 3.39731 22.0759 4.36764 22.3413 4.76769C22.8447 5.79941 25.3459 6.10633 26.3432 5.25877C28.1643 3.71104 26.661 0.887864 24.2426 1.2056ZM25.3143 4.0481C24.7506 4.52716 24.207 4.50263 23.7611 3.97801C23.0066 3.09019 23.8848 1.92679 24.9519 2.47945C26.14 2.99876 26.1814 3.31109 25.3143 4.0481Z" fill="#50735F"/>
<path opacity="0.8" d="M54.7256 15.241C52.9834 15.0766 52.3132 15.7246 52.2662 17.6446C52.2305 19.3983 53.3024 20.2107 55.2058 19.8464C56.2682 19.5701 56.5397 19.2611 56.6357 17.8477C56.7713 15.8524 56.4291 15.3599 54.7256 15.241ZM55.1416 18.3343C54.7871 18.6355 54.245 18.6262 53.9358 18.2623C53.2787 17.4891 53.4737 16.4616 54.2647 16.4944C55.2602 16.5884 55.8061 17.7695 55.1416 18.3343Z" fill="#50735F"/>
<path d="M55.2288 44.4575C55.3005 44.0213 55.3361 43.5817 55.3353 43.1431C56.4502 43.342 57.5839 43.452 58.7253 43.472C59.3884 43.4656 59.4112 43.0699 59.0849 42.9239L55.8628 41.6326C57.3386 39.6616 59.4737 37.7541 54.2581 40.9384C54.1977 40.8175 54.1244 40.7036 54.0394 40.5985C53.8105 40.2702 53.6089 39.9238 53.4366 39.5623C52.2825 37.5993 51.7497 38.2161 51.8114 38.6499C51.8467 38.9262 52.5233 41.0967 52.6161 41.3574C52.3397 41.5104 49.2096 42.3954 48.389 43.0835C47.6624 44.1098 51.1919 43.3095 53.0872 43.2259C53.1192 43.5613 53.3744 46.5333 53.4823 46.8875C53.6505 47.4344 54.0214 47.4342 54.1838 47.2088C54.3135 47.0434 55.1599 44.7582 55.2288 44.4575ZM53.6438 43.7649C53.4549 42.3059 54.1152 42.7497 49.3861 43.0544C53.6363 41.0322 53.5086 42.6807 52.596 39.3626C53.2122 40.2157 53.6909 41.7055 54.1909 41.3233C54.3625 41.4444 54.3306 41.3367 56.4549 40.1232C54.8067 42.1233 54.6389 41.74 58.059 43.0072C54.5654 42.8552 54.9708 41.7899 54.753 44.0267C54.7201 44.2834 54.6567 44.5369 54.5641 44.7819C54.5746 44.7574 54.3843 45.2714 54.4691 45.0246C54.1088 45.9327 54.2507 45.5531 53.9158 46.4485C53.9221 46.4408 53.7475 44.5205 53.647 43.7699L53.6438 43.7649Z" fill="#50735F"/>
<path d="M10.4756 13.7265C10.5762 13.1721 10.6306 12.6141 10.638 12.0581C12.0674 12.2885 13.5225 12.4059 14.9895 12.4091C15.8419 12.388 15.8791 11.886 15.4624 11.7072L11.3456 10.1328C13.281 7.60532 16.0628 5.14558 9.29619 9.28399C9.22087 9.1319 9.1289 8.98893 9.02173 8.85733C8.73382 8.44568 8.48149 8.0104 8.26699 7.55548C6.82161 5.08929 6.12474 5.88165 6.19556 6.43039C6.23557 6.78 7.06311 9.51852 7.17727 9.84724C6.81892 10.0465 2.77796 11.2295 1.70977 12.1177C0.755732 13.433 5.30845 12.3497 7.74644 12.2068C7.78114 12.6313 8.05132 16.3942 8.18314 16.8411C8.38862 17.5311 8.86552 17.5237 9.07857 17.2348C9.2486 17.0226 10.3811 14.1091 10.4756 13.7265ZM8.45149 12.8793C8.23702 11.0333 9.07724 11.5831 2.99204 12.0614C8.49507 9.41507 8.29877 11.5074 7.19026 7.31869C7.96583 8.38819 8.5521 10.2676 9.20233 9.77335C9.42051 9.92344 9.38173 9.78753 12.1361 8.20783C9.97837 10.7755 9.77006 10.2929 14.142 11.8327C9.65391 11.7081 10.1958 10.3497 9.87231 13.1896C9.82502 13.5157 9.73859 13.8383 9.6148 14.1507C9.62872 14.1194 9.37404 14.7747 9.48793 14.4602C9.00705 15.6185 9.19679 15.1345 8.74891 16.2761C8.7572 16.2663 8.57014 13.8352 8.45556 12.8856L8.45149 12.8793Z" fill="#50735F"/>
</svg>
