<svg width="314" height="30" viewBox="0 0 314 30" fill="none" xmlns="http://www.w3.org/2000/svg">
<path d="M19.1912 29.109H24.712V0.648336H19.1912V29.109ZM52.2501 19.847L34.9123 0.648336H31.1529V29.109H36.6736V10.0823L53.8932 29.109H57.8366V0.648336H52.3158L52.2501 19.847ZM5.52076 0.648336H0V29.109H14.2488V24.478H5.52076V0.648336ZM64.1066 29.109H79.8802V24.478H69.6668V16.5392H79.315V11.9082H69.6668V5.29254H79.8933V0.648336H64.1197L64.1066 29.109ZM281.559 13.6018L293.389 0.714492H286.554L276.262 12.6227V0.714492H271.004V29.109H276.262V16.817L276.893 16.4598L286.804 29.109H294.033L281.559 14.1311V13.6018ZM264.931 9.26194C264.931 3.09613 260.738 0.793881 255.059 0.793881H252.43H247.172V29.109H252.43V17.5315H252.877L260.541 29.109H267.428L258.635 17.2007C260.464 16.8746 262.112 15.8886 263.271 14.4273C264.43 12.966 265.02 11.1296 264.931 9.26194ZM254.415 13.7871H252.378V5.37192H254.376C257.202 5.37192 259.292 6.52305 259.292 9.59272C259.344 12.3448 257.294 13.7341 254.428 13.7341L254.415 13.7871ZM306.442 11.9082C301.657 10.5851 301.499 8.69299 301.499 7.80649C301.499 6.6289 302.564 4.65743 305.522 4.65743C306.405 4.6705 307.274 4.87597 308.071 5.2597C308.867 5.64343 309.572 6.19631 310.135 6.8803C311.608 5.23961 312.975 3.47984 312.975 3.47984C312.009 2.3431 310.794 1.44866 309.424 0.867561C308.055 0.286461 306.571 0.0347129 305.088 0.132313C300.106 0.132313 295.887 2.8712 295.887 8.30928C295.887 12.9006 299.699 14.7265 301.736 15.5865C303.773 16.4466 308.387 16.9097 308.387 20.8791C308.391 21.8915 308.001 22.8652 307.301 23.5921C306.601 24.319 305.646 24.7414 304.641 24.7691C303.335 24.7481 302.053 24.4202 300.896 23.8113C299.739 23.2025 298.739 22.3298 297.977 21.2628C294.506 24.4515 294.533 24.4515 294.533 24.4515C295.521 26.1 296.924 27.4572 298.599 28.3864C300.274 29.3155 302.163 29.7838 304.076 29.7441C310.333 29.7441 313.974 25.682 313.974 20.4821C313.974 15.2822 309.767 12.8344 306.442 11.9082ZM228.717 0C218.202 0 213.548 7.79326 213.548 14.8853C213.548 21.3951 217.742 29.7044 228.52 29.7044C239.299 29.7044 243.492 21.3951 243.492 14.8853C243.492 8.37544 239.233 0 228.717 0ZM228.533 24.5574C221.724 24.5574 219.082 19.1325 219.082 14.872C219.082 10.2411 222 5.14699 228.652 5.14699C235.303 5.14699 237.984 10.6248 237.984 14.8853C237.984 19.1458 235.355 24.5574 228.56 24.5574H228.533ZM147.759 9.26194C147.759 3.09613 143.566 0.793881 137.888 0.793881H135.259H130.001V29.109H135.259V17.5315H135.706L143.382 29.109H150.27L141.476 17.2007C143.303 16.8718 144.948 15.8845 146.104 14.4235C147.261 12.9625 147.849 11.1277 147.759 9.26194ZM137.244 13.7871H135.259V5.37192H137.257C140.083 5.37192 142.173 6.52305 142.173 9.59272C142.173 12.3448 140.122 13.7341 137.257 13.7341L137.244 13.7871ZM151.4 5.29254H157.736V29.109H162.994V5.29254H169.29V0.701261H151.4V5.29254ZM110.06 0.701261L98.0987 29.109H103.738L106.183 23.1019H118.171L120.642 29.109H126.281L114.359 0.701261H110.06ZM108.036 18.5239L112.177 8.36221L116.33 18.5239H108.036ZM200.443 20.0719L193.766 0.701261H190.94L183.92 20.0719L177.769 0.701261H172.038L181.673 29.109H185.931L186.431 27.9049L192.307 11.0482L198.025 27.9049L198.485 29.109H202.743L212.944 0.701261H207.213L200.443 20.0719Z" fill="#2C2C2B"/>
</svg>
